<svg xmlns="http://www.w3.org/2000/svg" xmlns:xlink="http://www.w3.org/1999/xlink" width="500" zoomAndPan="magnify" viewBox="0 0 375 374.999991" height="500" preserveAspectRatio="xMidYMid meet" version="1.0"><defs><g/><clipPath id="0798de9248"><path d="M 28 27.929688 L 347 27.929688 L 347 347 L 28 347 Z M 28 27.929688 " clip-rule="nonzero"/></clipPath><clipPath id="d983571b35"><path d="M 242.085938 37.539062 C 259.488281 43.898438 275.65625 53.222656 289.875 65.101562 L 289.878906 65.105469 C 304.097656 76.980469 316.113281 91.269531 325.375 107.316406 L 325.707031 107.886719 C 334.960938 123.917969 341.320312 141.449219 344.5 159.683594 C 347.679688 177.921875 347.691406 196.574219 344.542969 214.820312 L 344.476562 215.1875 C 341.316406 233.5 334.898438 251.101562 325.535156 267.15625 L 325.484375 267.242188 C 316.148438 283.25 304.101562 297.511719 289.878906 309.390625 L 289.875 309.394531 C 275.65625 321.269531 259.488281 330.59375 242.085938 336.953125 C 224.691406 343.308594 206.3125 346.5625 187.789062 346.5625 L 187.144531 346.5625 C 168.625 346.5625 150.246094 343.308594 132.847656 336.953125 C 115.449219 330.59375 99.28125 321.269531 85.0625 309.394531 L 85.054688 309.390625 C 70.835938 297.511719 58.789062 283.25 49.453125 267.242188 L 49.402344 267.15625 C 40.039062 251.101562 33.621094 233.5 30.457031 215.1875 L 30.394531 214.820312 C 27.242188 196.574219 27.257812 177.921875 30.4375 159.683594 C 33.613281 141.449219 39.976562 123.917969 49.230469 107.886719 L 49.5625 107.316406 C 58.824219 91.269531 70.839844 76.980469 85.054688 65.105469 L 85.0625 65.101562 C 99.28125 53.222656 115.449219 43.898438 132.847656 37.539062 C 150.246094 31.183594 168.625 27.929688 187.144531 27.929688 L 187.789062 27.929688 C 206.3125 27.929688 224.691406 31.183594 242.085938 37.539062 Z M 242.085938 37.539062 " clip-rule="nonzero"/></clipPath><clipPath id="a05206af4c"><path d="M 0 0.929688 L 319 0.929688 L 319 319.800781 L 0 319.800781 Z M 0 0.929688 " clip-rule="nonzero"/></clipPath><clipPath id="6d89030445"><path d="M 214.085938 10.539062 C 231.488281 16.898438 247.65625 26.222656 261.875 38.101562 L 261.878906 38.105469 C 276.097656 49.980469 288.113281 64.269531 297.375 80.316406 L 297.707031 80.886719 C 306.960938 96.917969 313.320312 114.449219 316.5 132.683594 C 319.679688 150.921875 319.691406 169.574219 316.542969 187.820312 L 316.476562 188.1875 C 313.316406 206.5 306.898438 224.101562 297.535156 240.15625 L 297.484375 240.242188 C 288.148438 256.25 276.101562 270.511719 261.878906 282.390625 L 261.875 282.394531 C 247.65625 294.269531 231.488281 303.59375 214.085938 309.953125 C 196.691406 316.308594 178.3125 319.5625 159.789062 319.5625 L 159.144531 319.5625 C 140.625 319.5625 122.246094 316.308594 104.847656 309.953125 C 87.449219 303.59375 71.28125 294.269531 57.0625 282.394531 L 57.054688 282.390625 C 42.835938 270.511719 30.789062 256.25 21.453125 240.242188 L 21.402344 240.15625 C 12.039062 224.101562 5.621094 206.5 2.457031 188.1875 L 2.394531 187.820312 C -0.757812 169.574219 -0.742188 150.921875 2.4375 132.683594 C 5.613281 114.449219 11.976562 96.917969 21.230469 80.886719 L 21.5625 80.316406 C 30.824219 64.269531 42.839844 49.980469 57.054688 38.105469 L 57.0625 38.101562 C 71.28125 26.222656 87.449219 16.898438 104.847656 10.539062 C 122.246094 4.183594 140.625 0.929688 159.144531 0.929688 L 159.789062 0.929688 C 178.3125 0.929688 196.691406 4.183594 214.085938 10.539062 Z M 214.085938 10.539062 " clip-rule="nonzero"/></clipPath><clipPath id="d6cb4b742b"><rect x="0" width="319" y="0" height="320"/></clipPath><clipPath id="c541fc33b7"><rect x="0" width="220" y="0" height="94"/></clipPath><clipPath id="75e704870d"><rect x="0" width="222" y="0" height="119"/></clipPath></defs><g clip-path="url(#0798de9248)"><g clip-path="url(#d983571b35)"><g transform="matrix(1, 0, 0, 1, 28, 27)"><g clip-path="url(#d6cb4b742b)"><g clip-path="url(#a05206af4c)"><g clip-path="url(#6d89030445)"><path fill="#e2d3f4" d="M -2.367188 0.929688 L 321.757812 0.929688 L 321.757812 320.070312 L -2.367188 320.070312 Z M -2.367188 0.929688 " fill-opacity="1" fill-rule="nonzero"/></g></g></g></g></g></g><g transform="matrix(1, 0, 0, 1, 78, 97)"><g clip-path="url(#c541fc33b7)"><g fill="#013dc4" fill-opacity="1"><g transform="translate(0.496498, 68.175419)"><g><path d="M 1.546875 -34.21875 L 16.03125 -34.21875 C 15.300781 -31.132812 14.722656 -28.320312 14.296875 -25.78125 C 13.878906 -23.25 13.640625 -20.816406 13.578125 -18.484375 C 13.523438 -16.148438 13.628906 -13.753906 13.890625 -11.296875 C 13.890625 -15.378906 14.289062 -18.9375 15.09375 -21.96875 C 15.90625 -25 16.960938 -27.492188 18.265625 -29.453125 C 19.578125 -31.421875 20.984375 -32.890625 22.484375 -33.859375 C 23.992188 -34.835938 25.445312 -35.328125 26.84375 -35.328125 C 28.125 -35.328125 29.296875 -34.929688 30.359375 -34.140625 C 31.429688 -33.347656 32.242188 -32.179688 32.796875 -30.640625 C 33.160156 -29.648438 33.378906 -28.65625 33.453125 -27.65625 C 33.523438 -26.664062 33.523438 -25.640625 33.453125 -24.578125 C 34.742188 -28.210938 36.414062 -30.910156 38.46875 -32.671875 C 40.53125 -34.441406 42.515625 -35.328125 44.421875 -35.328125 C 45.703125 -35.328125 46.867188 -34.929688 47.921875 -34.140625 C 48.972656 -33.347656 49.769531 -32.179688 50.3125 -30.640625 C 50.90625 -29.023438 51.144531 -27.390625 51.03125 -25.734375 C 50.925781 -24.085938 50.695312 -22.363281 50.34375 -20.5625 C 50 -18.757812 49.753906 -16.816406 49.609375 -14.734375 C 49.460938 -12.660156 49.625 -10.410156 50.09375 -7.984375 C 50.570312 -5.566406 51.582031 -2.90625 53.125 0 L 38.578125 0 C 38.097656 -1.582031 37.929688 -3.335938 38.078125 -5.265625 C 38.234375 -7.191406 38.53125 -9.203125 38.96875 -11.296875 C 39.40625 -13.390625 39.867188 -15.460938 40.359375 -17.515625 C 40.859375 -19.578125 41.242188 -21.546875 41.515625 -23.421875 C 41.796875 -25.296875 41.828125 -26.96875 41.609375 -28.4375 C 41.347656 -30.195312 40.742188 -31.078125 39.796875 -31.078125 C 39.023438 -31.078125 38.160156 -30.390625 37.203125 -29.015625 C 36.242188 -27.640625 35.378906 -25.617188 34.609375 -22.953125 C 33.835938 -20.285156 33.3125 -17.03125 33.03125 -13.1875 C 32.757812 -9.351562 32.921875 -4.957031 33.515625 0 L 21.109375 0 C 20.628906 -1.582031 20.453125 -3.335938 20.578125 -5.265625 C 20.710938 -7.191406 21.007812 -9.203125 21.46875 -11.296875 C 21.925781 -13.390625 22.398438 -15.460938 22.890625 -17.515625 C 23.390625 -19.578125 23.773438 -21.546875 24.046875 -23.421875 C 24.328125 -25.296875 24.359375 -26.96875 24.140625 -28.4375 C 23.878906 -30.195312 23.273438 -31.078125 22.328125 -31.078125 C 21.554688 -31.078125 20.691406 -30.390625 19.734375 -29.015625 C 18.773438 -27.640625 17.910156 -25.617188 17.140625 -22.953125 C 16.367188 -20.285156 15.84375 -17.023438 15.5625 -13.171875 C 15.289062 -9.316406 15.445312 -4.925781 16.03125 0 L 1.546875 0 C 2.347656 -3.382812 2.953125 -6.441406 3.359375 -9.171875 C 3.765625 -11.910156 3.96875 -14.554688 3.96875 -17.109375 C 3.96875 -19.660156 3.765625 -22.304688 3.359375 -25.046875 C 2.953125 -27.785156 2.347656 -30.84375 1.546875 -34.21875 Z M 1.546875 -34.21875 "/></g></g></g><g fill="#013dc4" fill-opacity="1"><g transform="translate(53.152117, 68.175419)"><g><path d="M 18.90625 -4.953125 C 17.875 -2.929688 16.46875 -1.40625 14.6875 -0.375 C 12.90625 0.644531 11.078125 1.15625 9.203125 1.15625 C 7.398438 1.15625 5.707031 0.695312 4.125 -0.21875 C 2.550781 -1.132812 1.347656 -2.519531 0.515625 -4.375 C -0.304688 -6.238281 -0.515625 -8.546875 -0.109375 -11.296875 C 0.253906 -13.753906 1.1875 -15.882812 2.6875 -17.6875 C 4.195312 -19.488281 6.019531 -20.882812 8.15625 -21.875 C 10.289062 -22.875 12.457031 -23.375 14.65625 -23.375 C 16.019531 -23.375 17.34375 -23.171875 18.625 -22.765625 C 19.914062 -22.359375 21.09375 -21.734375 22.15625 -20.890625 C 22.664062 -21.921875 23.039062 -23.171875 23.28125 -24.640625 C 23.519531 -26.109375 23.382812 -27.6875 22.875 -29.375 C 22.46875 -30.769531 21.820312 -31.832031 20.9375 -32.5625 C 20.0625 -33.300781 19.21875 -33.671875 18.40625 -33.671875 C 17.820312 -33.671875 17.328125 -33.476562 16.921875 -33.09375 C 16.515625 -32.707031 16.273438 -32.113281 16.203125 -31.3125 C 16.054688 -29.46875 15.640625 -28.039062 14.953125 -27.03125 C 14.273438 -26.019531 13.46875 -25.300781 12.53125 -24.875 C 11.601562 -24.457031 10.675781 -24.191406 9.75 -24.078125 C 8.101562 -23.898438 6.78125 -24.164062 5.78125 -24.875 C 4.789062 -25.59375 4.285156 -26.515625 4.265625 -27.640625 C 4.253906 -28.765625 4.832031 -29.835938 6 -30.859375 C 7.695312 -32.367188 9.632812 -33.507812 11.8125 -34.28125 C 14 -35.050781 16.179688 -35.4375 18.359375 -35.4375 C 20.234375 -35.4375 22.015625 -35.132812 23.703125 -34.53125 C 25.390625 -33.925781 26.859375 -33.003906 28.109375 -31.765625 C 29.359375 -30.535156 30.257812 -28.96875 30.8125 -27.0625 C 31.363281 -25.15625 31.4375 -22.894531 31.03125 -20.28125 C 30.769531 -18.476562 30.554688 -16.582031 30.390625 -14.59375 C 30.222656 -12.613281 30.367188 -10.429688 30.828125 -8.046875 C 31.296875 -5.660156 32.316406 -2.976562 33.890625 0 L 19.40625 0 C 19.144531 -0.84375 18.984375 -1.675781 18.921875 -2.5 C 18.867188 -3.332031 18.863281 -4.148438 18.90625 -4.953125 Z M 11.140625 -12.84375 C 10.660156 -10.925781 10.5 -9.257812 10.65625 -7.84375 C 10.820312 -6.4375 11.21875 -5.347656 11.84375 -4.578125 C 12.46875 -3.804688 13.1875 -3.421875 14 -3.421875 C 14.84375 -3.421875 15.722656 -3.890625 16.640625 -4.828125 C 17.554688 -5.765625 18.382812 -7.242188 19.125 -9.265625 C 19.863281 -11.285156 20.378906 -13.910156 20.671875 -17.140625 C 20.671875 -18.421875 20.410156 -19.351562 19.890625 -19.9375 C 19.378906 -20.53125 18.753906 -20.828125 18.015625 -20.828125 C 16.847656 -20.828125 15.5625 -20.140625 14.15625 -18.765625 C 12.757812 -17.390625 11.753906 -15.414062 11.140625 -12.84375 Z M 11.140625 -12.84375 "/></g></g></g><g fill="#013dc4" fill-opacity="1"><g transform="translate(86.628174, 68.175419)"><g><path d="M 16.03125 0 L 1.546875 0 C 2.203125 -2.675781 2.722656 -5.660156 3.109375 -8.953125 C 3.492188 -12.242188 3.75 -15.660156 3.875 -19.203125 C 4.007812 -22.753906 4.007812 -26.300781 3.875 -29.84375 C 3.75 -33.382812 3.492188 -36.800781 3.109375 -40.09375 C 2.722656 -43.382812 2.203125 -46.367188 1.546875 -49.046875 L 16.03125 -49.046875 C 15.300781 -46.035156 14.722656 -42.675781 14.296875 -38.96875 C 13.878906 -35.257812 13.632812 -31.398438 13.5625 -27.390625 C 13.488281 -23.390625 13.578125 -19.457031 13.828125 -15.59375 C 14.347656 -19.269531 15.269531 -22.394531 16.59375 -24.96875 C 17.914062 -27.539062 19.457031 -29.613281 21.21875 -31.1875 C 22.976562 -32.769531 24.742188 -33.894531 26.515625 -34.5625 C 27.503906 -34.957031 28.585938 -35.210938 29.765625 -35.328125 C 31.859375 -35.546875 33.5 -35.332031 34.6875 -34.6875 C 35.882812 -34.050781 36.648438 -33.179688 36.984375 -32.078125 C 37.316406 -30.972656 37.234375 -29.820312 36.734375 -28.625 C 36.234375 -27.4375 35.332031 -26.378906 34.03125 -25.453125 C 32.726562 -24.535156 31.046875 -23.96875 28.984375 -23.75 C 27.003906 -23.53125 25.523438 -23.878906 24.546875 -24.796875 C 23.578125 -25.710938 23.332031 -26.796875 23.8125 -28.046875 C 24.03125 -28.640625 24.140625 -29.109375 24.140625 -29.453125 C 24.140625 -29.804688 23.972656 -29.984375 23.640625 -29.984375 C 23.390625 -29.984375 23.113281 -29.910156 22.8125 -29.765625 C 21.75 -29.242188 20.664062 -28.238281 19.5625 -26.75 C 18.457031 -25.269531 17.519531 -23.316406 16.75 -20.890625 C 18.40625 -20.960938 19.90625 -21.117188 21.25 -21.359375 C 22.59375 -21.597656 23.847656 -21.863281 25.015625 -22.15625 C 25.460938 -21.09375 26.023438 -19.78125 26.703125 -18.21875 C 27.378906 -16.65625 28.148438 -15 29.015625 -13.25 C 29.878906 -11.507812 30.785156 -9.785156 31.734375 -8.078125 C 32.691406 -6.367188 33.65625 -4.804688 34.625 -3.390625 C 35.601562 -1.972656 36.535156 -0.84375 37.421875 0 L 22.921875 0 C 22.773438 -1.175781 22.367188 -2.671875 21.703125 -4.484375 C 21.046875 -6.304688 20.210938 -8.3125 19.203125 -10.5 C 18.191406 -12.6875 17.082031 -14.898438 15.875 -17.140625 C 15.46875 -14.898438 15.265625 -12.328125 15.265625 -9.421875 C 15.265625 -6.523438 15.519531 -3.382812 16.03125 0 Z M 16.03125 0 "/></g></g></g><g fill="#013dc4" fill-opacity="1"><g transform="translate(122.03321, 68.175419)"><g><path d="M 1.109375 -15.984375 C 1.109375 -18.703125 1.554688 -21.226562 2.453125 -23.5625 C 3.347656 -25.894531 4.613281 -27.941406 6.25 -29.703125 C 7.882812 -31.472656 9.8125 -32.851562 12.03125 -33.84375 C 14.257812 -34.832031 16.695312 -35.328125 19.34375 -35.328125 C 20.664062 -35.328125 22.035156 -35.171875 23.453125 -34.859375 C 24.867188 -34.546875 26.171875 -34.054688 27.359375 -33.390625 C 28.554688 -32.734375 29.539062 -31.863281 30.3125 -30.78125 C 31.082031 -29.695312 31.503906 -28.363281 31.578125 -26.78125 C 31.648438 -24.976562 31.234375 -23.332031 30.328125 -21.84375 C 29.429688 -20.363281 28.210938 -19.050781 26.671875 -17.90625 C 25.128906 -16.769531 23.445312 -15.816406 21.625 -15.046875 C 19.8125 -14.273438 18.015625 -13.695312 16.234375 -13.3125 C 14.453125 -12.925781 12.863281 -12.734375 11.46875 -12.734375 C 11.570312 -10.710938 11.984375 -8.765625 12.703125 -6.890625 C 13.421875 -5.015625 14.421875 -3.488281 15.703125 -2.3125 C 16.992188 -1.132812 18.554688 -0.601562 20.390625 -0.71875 C 21.378906 -0.789062 22.019531 -1.203125 22.3125 -1.953125 C 22.613281 -2.710938 22.644531 -3.632812 22.40625 -4.71875 C 22.164062 -5.800781 21.742188 -6.851562 21.140625 -7.875 C 20.535156 -8.90625 19.84375 -9.695312 19.0625 -10.25 C 20.5 -11.382812 21.84375 -12.203125 23.09375 -12.703125 C 24.34375 -13.203125 25.484375 -13.453125 26.515625 -13.453125 C 27.867188 -13.453125 28.945312 -13.082031 29.75 -12.34375 C 30.5625 -11.613281 31.023438 -10.648438 31.140625 -9.453125 C 31.253906 -8.253906 30.90625 -6.957031 30.09375 -5.5625 C 28.84375 -3.46875 27.140625 -1.832031 24.984375 -0.65625 C 22.835938 0.519531 20.570312 1.109375 18.1875 1.109375 C 15.507812 1.109375 13.113281 0.648438 11 -0.265625 C 8.882812 -1.191406 7.09375 -2.453125 5.625 -4.046875 C 4.15625 -5.648438 3.035156 -7.476562 2.265625 -9.53125 C 1.492188 -11.59375 1.109375 -13.742188 1.109375 -15.984375 Z M 12.40625 -23.484375 C 12.144531 -22.453125 11.910156 -21.117188 11.703125 -19.484375 C 11.503906 -17.847656 11.40625 -16.128906 11.40625 -14.328125 C 13.207031 -14.441406 14.832031 -15.066406 16.28125 -16.203125 C 17.738281 -17.335938 18.960938 -18.75 19.953125 -20.4375 C 20.941406 -22.132812 21.617188 -23.847656 21.984375 -25.578125 C 22.609375 -28.398438 22.691406 -30.460938 22.234375 -31.765625 C 21.773438 -33.078125 21.066406 -33.734375 20.109375 -33.734375 C 19.304688 -33.734375 18.414062 -33.316406 17.4375 -32.484375 C 16.46875 -31.660156 15.53125 -30.484375 14.625 -28.953125 C 13.726562 -27.429688 12.988281 -25.609375 12.40625 -23.484375 Z M 12.40625 -23.484375 "/></g></g></g><g fill="#013dc4" fill-opacity="1"><g transform="translate(153.194493, 68.175419)"><g><path d="M 16.03125 0 L 1.546875 0 C 2.347656 -3.382812 2.953125 -6.441406 3.359375 -9.171875 C 3.765625 -11.910156 3.96875 -14.554688 3.96875 -17.109375 C 3.96875 -19.660156 3.765625 -22.304688 3.359375 -25.046875 C 2.953125 -27.785156 2.347656 -30.84375 1.546875 -34.21875 L 16.03125 -34.21875 C 15.007812 -30.101562 14.304688 -26.46875 13.921875 -23.3125 C 13.535156 -20.15625 13.453125 -16.976562 13.671875 -13.78125 C 13.773438 -16.238281 14.082031 -18.679688 14.59375 -21.109375 C 15.113281 -23.535156 15.859375 -25.773438 16.828125 -27.828125 C 17.804688 -29.890625 19.082031 -31.585938 20.65625 -32.921875 C 22.238281 -34.265625 24.171875 -35.066406 26.453125 -35.328125 C 28.617188 -35.585938 30.328125 -35.347656 31.578125 -34.609375 C 32.828125 -33.878906 33.632812 -32.941406 34 -31.796875 C 34.332031 -30.773438 34.269531 -29.679688 33.8125 -28.515625 C 33.351562 -27.359375 32.515625 -26.335938 31.296875 -25.453125 C 30.085938 -24.578125 28.472656 -24.007812 26.453125 -23.75 C 24.546875 -23.53125 23.066406 -23.859375 22.015625 -24.734375 C 20.972656 -25.617188 20.632812 -26.6875 21 -27.9375 C 21.1875 -28.53125 21.257812 -29.019531 21.21875 -29.40625 C 21.1875 -29.789062 21.019531 -29.984375 20.71875 -29.984375 C 20.5 -29.984375 20.242188 -29.851562 19.953125 -29.59375 C 19.066406 -28.75 18.25 -27.351562 17.5 -25.40625 C 16.75 -23.457031 16.140625 -21.175781 15.671875 -18.5625 C 15.210938 -15.957031 14.957031 -13.222656 14.90625 -10.359375 C 14.851562 -7.492188 15.066406 -4.703125 15.546875 -1.984375 C 15.617188 -1.648438 15.695312 -1.316406 15.78125 -0.984375 C 15.875 -0.660156 15.957031 -0.332031 16.03125 0 Z M 16.03125 0 "/></g></g></g><g fill="#013dc4" fill-opacity="1"><g transform="translate(185.01714, 68.175419)"><g><path d="M 2.046875 -5.5625 C 1.265625 -6.957031 0.921875 -8.253906 1.015625 -9.453125 C 1.109375 -10.648438 1.554688 -11.613281 2.359375 -12.34375 C 3.171875 -13.082031 4.257812 -13.453125 5.625 -13.453125 C 6.65625 -13.453125 7.789062 -13.203125 9.03125 -12.703125 C 10.28125 -12.203125 11.625 -11.382812 13.0625 -10.25 C 12.03125 -9.519531 11.359375 -8.648438 11.046875 -7.640625 C 10.734375 -6.628906 10.757812 -5.632812 11.125 -4.65625 C 11.5 -3.6875 12.144531 -2.816406 13.0625 -2.046875 C 14.195312 -1.117188 15.390625 -0.65625 16.640625 -0.65625 C 17.785156 -0.65625 18.828125 -0.984375 19.765625 -1.640625 C 20.703125 -2.304688 21.367188 -3.171875 21.765625 -4.234375 C 22.171875 -5.304688 22.171875 -6.4375 21.765625 -7.625 C 21.367188 -8.820312 20.414062 -9.9375 18.90625 -10.96875 C 17.65625 -11.851562 16.175781 -12.671875 14.46875 -13.421875 C 12.757812 -14.171875 11.097656 -14.988281 9.484375 -15.875 C 7.347656 -17.050781 5.71875 -18.460938 4.59375 -20.109375 C 3.476562 -21.765625 2.898438 -23.460938 2.859375 -25.203125 C 2.828125 -26.953125 3.398438 -28.585938 4.578125 -30.109375 C 5.753906 -31.640625 7.550781 -32.882812 9.96875 -33.84375 C 11.363281 -34.351562 12.84375 -34.742188 14.40625 -35.015625 C 15.96875 -35.296875 17.519531 -35.4375 19.0625 -35.4375 C 21.007812 -35.4375 22.847656 -35.222656 24.578125 -34.796875 C 26.304688 -34.378906 27.726562 -33.765625 28.84375 -32.953125 C 29.96875 -32.148438 30.625 -31.125 30.8125 -29.875 C 31.03125 -28.476562 30.585938 -27.132812 29.484375 -25.84375 C 28.378906 -24.5625 26.632812 -23.773438 24.25 -23.484375 C 22.59375 -23.296875 21.25 -23.53125 20.21875 -24.1875 C 19.195312 -24.851562 18.65625 -25.71875 18.59375 -26.78125 C 18.539062 -27.851562 19.101562 -28.882812 20.28125 -29.875 C 20.789062 -30.3125 21.054688 -30.820312 21.078125 -31.40625 C 21.097656 -32 20.804688 -32.535156 20.203125 -33.015625 C 19.597656 -33.492188 18.613281 -33.734375 17.25 -33.734375 C 16.769531 -33.734375 16.171875 -33.492188 15.453125 -33.015625 C 14.742188 -32.535156 14.082031 -31.910156 13.46875 -31.140625 C 12.863281 -30.367188 12.453125 -29.539062 12.234375 -28.65625 C 12.015625 -27.78125 12.132812 -26.914062 12.59375 -26.0625 C 13.050781 -25.21875 14 -24.503906 15.4375 -23.921875 C 16.757812 -23.367188 18.179688 -22.828125 19.703125 -22.296875 C 21.222656 -21.765625 22.738281 -21.175781 24.25 -20.53125 C 25.757812 -19.882812 27.128906 -19.101562 28.359375 -18.1875 C 29.585938 -17.269531 30.578125 -16.15625 31.328125 -14.84375 C 32.085938 -13.539062 32.46875 -11.972656 32.46875 -10.140625 C 32.46875 -8.085938 31.867188 -6.25 30.671875 -4.625 C 29.472656 -3.007812 27.972656 -1.742188 26.171875 -0.828125 C 24.929688 -0.203125 23.519531 0.273438 21.9375 0.609375 C 20.351562 0.941406 18.71875 1.109375 17.03125 1.109375 C 15.007812 1.109375 13.015625 0.867188 11.046875 0.390625 C 9.085938 -0.0859375 7.316406 -0.820312 5.734375 -1.8125 C 4.148438 -2.8125 2.921875 -4.0625 2.046875 -5.5625 Z M 2.046875 -5.5625 "/></g></g></g></g></g><g transform="matrix(1, 0, 0, 1, 77, 162)"><g clip-path="url(#75e704870d)"><g fill="#013dc4" fill-opacity="1"><g transform="translate(1.146115, 86.275319)"><g><path d="M 22.21875 0 L 2.125 0 C 3.21875 -4.820312 4.035156 -9.921875 4.578125 -15.296875 C 5.117188 -20.671875 5.390625 -26.101562 5.390625 -31.59375 C 5.390625 -37.082031 5.117188 -42.507812 4.578125 -47.875 C 4.035156 -53.25 3.21875 -58.347656 2.125 -63.171875 L 22.21875 -63.171875 C 21.457031 -59.765625 20.828125 -56.25 20.328125 -52.625 C 19.835938 -49.007812 19.484375 -45.5 19.265625 -42.09375 C 19.054688 -38.6875 18.976562 -35.585938 19.03125 -32.796875 C 21.625 -34.921875 23.898438 -37.34375 25.859375 -40.0625 C 27.828125 -42.789062 29.414062 -45.570312 30.625 -48.40625 C 31.832031 -51.25 32.648438 -53.957031 33.078125 -56.53125 C 33.503906 -59.113281 33.503906 -61.328125 33.078125 -63.171875 L 52.671875 -63.171875 C 51.960938 -62.554688 50.894531 -61.585938 49.46875 -60.265625 C 48.050781 -58.941406 46.441406 -57.40625 44.640625 -55.65625 C 42.847656 -53.90625 40.976562 -52.070312 39.03125 -50.15625 C 37.09375 -48.238281 35.222656 -46.367188 33.421875 -44.546875 C 31.628906 -42.722656 30.035156 -41.078125 28.640625 -39.609375 C 27.242188 -38.140625 26.175781 -36.988281 25.4375 -36.15625 C 24.707031 -35.332031 24.4375 -34.96875 24.625 -35.0625 C 25.007812 -34.96875 25.4375 -34.894531 25.90625 -34.84375 C 26.382812 -34.800781 26.859375 -34.78125 27.328125 -34.78125 C 28.742188 -34.78125 30.234375 -34.929688 31.796875 -35.234375 C 33.359375 -35.546875 34.660156 -35.914062 35.703125 -36.34375 C 36.796875 -33.550781 38.15625 -30.664062 39.78125 -27.6875 C 41.414062 -24.707031 43.164062 -21.769531 45.03125 -18.875 C 46.90625 -15.988281 48.765625 -13.289062 50.609375 -10.78125 C 52.453125 -8.28125 54.144531 -6.09375 55.6875 -4.21875 C 57.226562 -2.351562 58.492188 -0.945312 59.484375 0 L 35.28125 0 C 35.1875 -2.550781 34.640625 -5.257812 33.640625 -8.125 C 32.648438 -10.988281 31.363281 -13.769531 29.78125 -16.46875 C 28.195312 -19.164062 26.46875 -21.601562 24.59375 -23.78125 C 22.726562 -25.957031 20.894531 -27.6875 19.09375 -28.96875 C 19.238281 -23.1875 19.570312 -17.941406 20.09375 -13.234375 C 20.613281 -8.523438 21.320312 -4.113281 22.21875 0 Z M 22.21875 0 "/></g></g></g><g fill="#013dc4" fill-opacity="1"><g transform="translate(58.806902, 86.275319)"><g><path d="M 2.125 -63.171875 L 22.21875 -63.171875 C 20.84375 -56.878906 19.90625 -50.253906 19.40625 -43.296875 C 18.914062 -36.335938 18.867188 -29.359375 19.265625 -22.359375 C 19.671875 -15.359375 20.515625 -8.613281 21.796875 -2.125 L 23.421875 -2.125 C 25.222656 -2.125 27.257812 -2.617188 29.53125 -3.609375 C 31.800781 -4.609375 34.0625 -6.003906 36.3125 -7.796875 C 38.5625 -9.597656 40.570312 -11.679688 42.34375 -14.046875 C 44.113281 -16.421875 45.425781 -18.976562 46.28125 -21.71875 C 46.46875 -19.300781 46.644531 -17.21875 46.8125 -15.46875 C 46.976562 -13.71875 47.175781 -12.085938 47.40625 -10.578125 C 47.644531 -9.066406 47.90625 -7.484375 48.1875 -5.828125 C 48.476562 -4.171875 48.835938 -2.226562 49.265625 0 L 2.125 0 C 3.21875 -4.820312 4.035156 -9.921875 4.578125 -15.296875 C 5.117188 -20.671875 5.390625 -26.101562 5.390625 -31.59375 C 5.390625 -37.082031 5.117188 -42.507812 4.578125 -47.875 C 4.035156 -53.25 3.21875 -58.347656 2.125 -63.171875 Z M 2.125 -63.171875 "/></g></g></g><g fill="#013dc4" fill-opacity="1"><g transform="translate(105.821286, 86.275319)"><g><path d="M 4.265625 -24.703125 C 4.265625 -29.484375 4.203125 -33.691406 4.078125 -37.328125 C 3.960938 -40.972656 3.773438 -44.265625 3.515625 -47.203125 C 3.253906 -50.140625 2.921875 -52.894531 2.515625 -55.46875 C 2.117188 -58.050781 1.632812 -60.617188 1.0625 -63.171875 L 21.15625 -63.171875 C 20.632812 -60.765625 20.171875 -58.328125 19.765625 -55.859375 C 19.367188 -53.398438 19.039062 -50.726562 18.78125 -47.84375 C 18.519531 -44.957031 18.316406 -41.65625 18.171875 -37.9375 C 18.023438 -34.226562 17.953125 -29.890625 17.953125 -24.921875 C 17.953125 -19.660156 18.753906 -15.347656 20.359375 -11.984375 C 21.972656 -8.628906 24.007812 -6.132812 26.46875 -4.5 C 28.9375 -2.875 31.472656 -2.0625 34.078125 -2.0625 C 37.003906 -2.0625 39.4375 -2.789062 41.375 -4.25 C 43.320312 -5.71875 44.875 -7.613281 46.03125 -9.9375 C 47.1875 -12.257812 48.015625 -14.742188 48.515625 -17.390625 C 49.015625 -20.035156 49.265625 -22.546875 49.265625 -24.921875 C 49.265625 -30.972656 49.023438 -36.128906 48.546875 -40.390625 C 48.078125 -44.648438 47.40625 -48.242188 46.53125 -51.171875 C 45.65625 -54.109375 44.585938 -56.523438 43.328125 -58.421875 C 42.078125 -60.316406 40.648438 -61.898438 39.046875 -63.171875 L 57.5 -63.171875 C 56.789062 -62.179688 56.128906 -61.09375 55.515625 -59.90625 C 54.898438 -58.726562 54.332031 -57.25 53.8125 -55.46875 C 53.289062 -53.695312 52.835938 -51.484375 52.453125 -48.828125 C 52.078125 -46.179688 51.796875 -42.90625 51.609375 -39 C 51.421875 -35.101562 51.328125 -30.410156 51.328125 -24.921875 C 51.328125 -21.460938 50.945312 -18.144531 50.1875 -14.96875 C 49.425781 -11.800781 48.179688 -8.988281 46.453125 -6.53125 C 44.734375 -4.070312 42.425781 -2.128906 39.53125 -0.703125 C 36.644531 0.710938 33.070312 1.421875 28.8125 1.421875 C 25.789062 1.421875 22.820312 0.851562 19.90625 -0.28125 C 17 -1.414062 14.363281 -3.09375 12 -5.3125 C 9.632812 -7.539062 7.753906 -10.273438 6.359375 -13.515625 C 4.960938 -16.765625 4.265625 -20.492188 4.265625 -24.703125 Z M 4.265625 -24.703125 "/></g></g></g><g fill="#013dc4" fill-opacity="1"><g transform="translate(162.204505, 86.275319)"><g><path d="M 2.125 0 C 3.21875 -4.820312 4.035156 -9.921875 4.578125 -15.296875 C 5.117188 -20.671875 5.390625 -26.101562 5.390625 -31.59375 C 5.390625 -37.082031 5.117188 -42.507812 4.578125 -47.875 C 4.035156 -53.25 3.21875 -58.347656 2.125 -63.171875 L 30.515625 -63.171875 C 32.128906 -63.171875 33.90625 -63.050781 35.84375 -62.8125 C 37.78125 -62.582031 39.707031 -62.171875 41.625 -61.578125 C 43.539062 -60.984375 45.289062 -60.164062 46.875 -59.125 C 48.46875 -58.082031 49.738281 -56.78125 50.6875 -55.21875 C 51.632812 -53.664062 52.109375 -51.773438 52.109375 -49.546875 C 52.109375 -47.648438 51.441406 -45.789062 50.109375 -43.96875 C 48.785156 -42.144531 46.960938 -40.488281 44.640625 -39 C 42.328125 -37.507812 39.679688 -36.316406 36.703125 -35.421875 C 38.921875 -35.421875 41.269531 -35.015625 43.75 -34.203125 C 46.238281 -33.398438 48.5625 -32.242188 50.71875 -30.734375 C 52.875 -29.222656 54.632812 -27.4375 56 -25.375 C 57.375 -23.3125 58.0625 -21.050781 58.0625 -18.59375 C 58.0625 -16.320312 57.503906 -14.070312 56.390625 -11.84375 C 55.285156 -9.625 53.597656 -7.625 51.328125 -5.84375 C 49.054688 -4.070312 46.179688 -2.65625 42.703125 -1.59375 C 39.222656 -0.53125 35.140625 0 30.453125 0 Z M 19.03125 -33.296875 L 19.03125 -13.34375 C 19.03125 -10.832031 19.347656 -8.832031 19.984375 -7.34375 C 20.617188 -5.851562 21.421875 -4.753906 22.390625 -4.046875 C 23.359375 -3.335938 24.375 -2.875 25.4375 -2.65625 C 26.507812 -2.445312 27.492188 -2.34375 28.390625 -2.34375 C 30.234375 -2.34375 31.925781 -2.835938 33.46875 -3.828125 C 35.007812 -4.828125 36.394531 -6.128906 37.625 -7.734375 C 38.851562 -9.347656 39.894531 -11.078125 40.75 -12.921875 C 42.351562 -16.367188 42.820312 -19.414062 42.15625 -22.0625 C 41.5 -24.71875 40.035156 -26.929688 37.765625 -28.703125 C 35.492188 -30.484375 32.710938 -31.765625 29.421875 -32.546875 C 26.128906 -33.328125 22.664062 -33.578125 19.03125 -33.296875 Z M 30.375 -60.96875 C 29.664062 -60.96875 28.679688 -60.613281 27.421875 -59.90625 C 26.171875 -59.195312 24.894531 -57.988281 23.59375 -56.28125 C 22.300781 -54.582031 21.203125 -52.253906 20.296875 -49.296875 C 19.398438 -46.335938 18.976562 -42.585938 19.03125 -38.046875 L 19.03125 -35.421875 C 24.988281 -35.703125 29.738281 -36.90625 33.28125 -39.03125 C 36.832031 -41.164062 38.707031 -44.316406 38.90625 -48.484375 C 38.945312 -49.660156 38.8125 -50.957031 38.5 -52.375 C 38.195312 -53.800781 37.703125 -55.164062 37.015625 -56.46875 C 36.328125 -57.769531 35.425781 -58.84375 34.3125 -59.6875 C 33.207031 -60.539062 31.894531 -60.96875 30.375 -60.96875 Z M 30.375 -60.96875 "/></g></g></g></g></g></svg>